{
	"accessors" :
	[
		{
			"bufferView" : 2,
			"byteOffset" : 0,
			"componentType" : 5126,
			"count" : 3852,
			"max" :
			[
				1,
				1,
				1,
				1
			],
			"min" :
			[
				0.9075471758842468,
				0.05284162983298302,
				0,
				1
			],
			"name" : "accessor_color_m0-PolyPaper21_-635514",
			"type" : "VEC4"
		},
		{
			"bufferView" : 0,
			"byteOffset" : 0,
			"componentType" : 5123,
			"count" : 5106,
			"max" :
			[
				3851
			],
			"min" :
			[
				0
			],
			"name" : "accessor_indices_0_m0-PolyPaper21_-635514",
			"type" : "SCALAR"
		},
		{
			"bufferView" : 1,
			"byteOffset" : 46224,
			"componentType" : 5126,
			"count" : 3852,
			"max" :
			[
				0.9993274,
				0.9993337,
				0.9941605999999999
			],
			"min" :
			[
				-0.9997206,
				-0.9993338,
				-0.9989027
			],
			"name" : "accessor_normal_m0-PolyPaper21_-635514",
			"type" : "VEC3"
		},
		{
			"bufferView" : 1,
			"byteOffset" : 0,
			"componentType" : 5126,
			"count" : 3852,
			"max" :
			[
				1.725614,
				2.435368,
				0.5209578
			],
			"min" :
			[
				1.161888,
				0.8798093,
				-1.231174
			],
			"name" : "accessor_position_m0-PolyPaper21_-635514",
			"type" : "VEC3"
		}
	],
	"asset" :
	{
		"copyright" : "Unknown",
		"generator" : "glTF 1-to-2 Upgrader for Google Blocks",
		"version" : "2.0"
	},
	"bufferViews" :
	[
		{
			"buffer" : 0,
			"byteLength" : 10212,
			"byteOffset" : 0,
			"name" : "ushortBufferView",
			"target" : 34963
		},
		{
			"buffer" : 0,
			"byteLength" : 92448,
			"byteOffset" : 10212,
			"byteStride" : 12,
			"name" : "vec3BufferView",
			"target" : 34962
		},
		{
			"buffer" : 0,
			"byteLength" : 61632,
			"byteOffset" : 102660,
			"byteStride" : 16,
			"name" : "vec4BufferView",
			"target" : 34962
		}
	],
	"buffers" :
	[
		{
			"byteLength" : 164292,
			"name" : "shrimp",
			"uri" : "shrimp.bin"
		}
	],
	"materials" :
	[
		{
			"alphaMode" : "OPAQUE",
			"doubleSided" : false,
			"name" : "BlocksPaper",
			"pbrMetallicRoughness" :
			{
				"baseColorFactor" :
				[
					1,
					1,
					1,
					1
				],
				"metallicFactor" : 0,
				"roughnessFactor" : 0.6
			}
		},
		{
			"alphaMode" : "BLEND",
			"doubleSided" : false,
			"name" : "BlocksGlass",
			"pbrMetallicRoughness" :
			{
				"baseColorFactor" :
				[
					0.2,
					0.2,
					1,
					0.3
				],
				"metallicFactor" : 1,
				"roughnessFactor" : 0.4
			}
		},
		{
			"alphaMode" : "OPAQUE",
			"doubleSided" : true,
			"name" : "BlocksGem",
			"pbrMetallicRoughness" :
			{
				"baseColorFactor" :
				[
					1,
					0.4,
					1,
					1
				],
				"metallicFactor" : 0,
				"roughnessFactor" : 0.1
			}
		}
	],
	"meshes" :
	[
		{
			"name" : "mesh_m0-PolyPaper21_-635514",
			"primitives" :
			[
				{
					"attributes" :
					{
						"COLOR_0" : 0,
						"NORMAL" : 2,
						"POSITION" : 3
					},
					"indices" : 1,
					"material" : 0,
					"mode" : 4
				}
			]
		}
	],
	"nodes" :
	[
		{
			"matrix" :
			[
				1,
				0,
				0,
				0,
				0,
				1,
				0,
				0,
				0,
				0,
				1,
				0,
				0,
				0,
				0,
				1
			],
			"mesh" : 0,
			"name" : "node_MeshObject158328256-PolyPaper21"
		}
	],
	"scene" : 0,
	"scenes" :
	[
		{
			"extras" : {},
			"name" : "defaultScene",
			"nodes" :
			[
				0
			]
		}
	]
}